<svg width="71" height="72" viewBox="0 0 71 72" fill="none" xmlns="http://www.w3.org/2000/svg">
<path d="M1.46484 0.11438H8.33371C9.34114 0.11438 10.257 0.240145 11.0813 0.491675C11.9055 0.743204 12.6077 1.10907 13.1877 1.58926C13.7677 2.06945 14.2142 2.66017 14.5271 3.3614C14.8401 4.06264 14.9965 4.85534 14.9965 5.7395V5.78523C14.9965 6.73038 14.8248 7.56119 14.4813 8.27767C14.1379 8.99414 13.6609 9.59629 13.0503 10.0841C12.4398 10.5719 11.7109 10.9378 10.8637 11.1817C10.0166 11.4256 9.09692 11.5476 8.10475 11.5476H5.90671V16.1208H1.46484V0.11438ZM8.01316 8.07187C8.8069 8.07187 9.42891 7.88513 9.87921 7.50974C10.3295 7.13435 10.5546 6.62557 10.5546 5.9815V5.93577C10.5546 5.24597 10.3295 4.72004 9.87921 4.3599C9.42891 3.99975 8.79927 3.82063 7.99027 3.82063H5.90671V8.07377H8.01316V8.07187Z" fill="white"/>
<path d="M22.4149 0H26.6965L33.5195 16.1208H28.7571L27.5894 13.2625H21.4074L20.2626 16.1208H15.5918L22.4149 0ZM26.3072 9.83253L24.5213 5.28213L22.7125 9.83253H26.3072Z" fill="white"/>
<path d="M39.7017 10.1298L33.6113 0.11438H38.6714L41.9685 5.9453L45.2884 0.11438H50.2569L44.1665 10.0612V16.1208H39.7017V10.1298Z" fill="white"/>
<path d="M6.0904 37.5694L0 27.554H5.06007L8.35712 33.3849L11.6771 27.554H16.6456L10.5552 37.5008V43.5604H6.0904V37.5694V37.5694Z" fill="white"/>
<path d="M26.0787 43.8805C24.8423 43.8805 23.6975 43.6633 22.6443 43.2288C21.591 42.7944 20.6828 42.2037 19.9196 41.4567C19.1564 40.7097 18.5573 39.8332 18.1223 38.8271C17.6872 37.8209 17.4697 36.7462 17.4697 35.6029V35.5572C17.4697 34.4139 17.6872 33.3353 18.1223 32.3216C18.5573 31.3078 19.164 30.4237 19.9425 29.6691C20.721 28.9145 21.6368 28.32 22.6901 27.8855C23.7433 27.4511 24.8881 27.2338 26.1245 27.2338C27.3609 27.2338 28.5057 27.4511 29.5589 27.8855C30.6122 28.32 31.5204 28.9107 32.2836 29.6577C33.0468 30.4046 33.6459 31.2812 34.0809 32.2873C34.516 33.2934 34.7335 34.3681 34.7335 35.5114V35.5572C34.7335 36.7005 34.516 37.779 34.0809 38.7928C33.6459 39.8065 33.0392 40.6907 32.2607 41.4453C31.4822 42.1998 30.5664 42.7944 29.5131 43.2288C28.4599 43.6633 27.3151 43.8805 26.0787 43.8805ZM26.1131 39.8789C26.7255 39.8789 27.2846 39.7646 27.7883 39.5359C28.292 39.3073 28.7213 38.9986 29.0743 38.6098C29.4254 38.2211 29.702 37.7676 29.9005 37.2493C30.0989 36.731 30.2 36.1822 30.2 35.6029V35.5572C30.2 34.9779 30.1008 34.4291 29.9005 33.9108C29.702 33.3925 29.4177 32.9352 29.0514 32.5388C28.6832 32.1425 28.2481 31.8262 27.7425 31.5899C27.2369 31.3536 26.6778 31.2354 26.0673 31.2354C25.4548 31.2354 24.8996 31.3498 24.4035 31.5784C23.9055 31.8071 23.4781 32.1158 23.1175 32.5045C22.7568 32.8932 22.4821 33.3468 22.2913 33.8651C22.1005 34.3834 22.0051 34.9322 22.0051 35.5114V35.5572C22.0051 36.1365 22.1043 36.6852 22.3027 37.2036C22.5012 37.7219 22.7817 38.1792 23.1404 38.5755C23.4991 38.9719 23.9322 39.2882 24.4378 39.5245C24.9415 39.7608 25.5006 39.8789 26.1131 39.8789Z" fill="white"/>
<path d="M44.2582 43.8577C43.1134 43.8577 42.0831 43.7128 41.1672 43.4232C40.2514 43.1336 39.4729 42.6877 38.8318 42.0855C38.1907 41.4834 37.6985 40.7212 37.355 39.7989C37.0116 38.8766 36.8398 37.7905 36.8398 36.5404V27.554H41.3733V36.449C41.3733 37.6075 41.6385 38.465 42.1689 39.0214C42.6994 39.5778 43.4111 39.856 44.304 39.856C45.197 39.856 45.9086 39.5893 46.4391 39.0557C46.9695 38.5222 47.2347 37.6914 47.2347 36.5633V27.554H51.7682V36.4261C51.7682 37.7219 51.5888 38.8385 51.2301 39.776C50.8714 40.7135 50.3677 41.4834 49.719 42.0855C49.0702 42.6877 48.2841 43.1336 47.3606 43.4232C46.4372 43.7128 45.403 43.8577 44.2582 43.8577Z" fill="white"/>
<path d="M54.4014 27.554H61.98C63.2164 27.554 64.262 27.7064 65.1168 28.0113C65.9716 28.3162 66.6661 28.743 67.2004 29.2918C68.1467 30.2064 68.6199 31.4489 68.6199 33.019V33.0647C68.6199 34.2995 68.3223 35.3209 67.727 36.1288C67.1317 36.9368 66.3303 37.5542 65.3229 37.981L69.1465 43.5604H64.0178L60.7894 38.7127H60.7436H58.8432V43.5604H54.4014V27.554ZM61.774 35.237C62.5372 35.237 63.1248 35.0655 63.537 34.7225C63.9491 34.3796 64.1552 33.9184 64.1552 33.3391V33.2934C64.1552 32.6531 63.9415 32.1768 63.5141 31.8643C63.0867 31.5518 62.499 31.3955 61.7511 31.3955H58.8432V35.237H61.774Z" fill="white"/>
<path d="M1 55.1143H5.15375L11.7612 63.5749V55.1143H16.1344V71.1208H12.2344L5.37318 62.3401V71.1208H1V55.1143Z" fill="#ED0C5A"/>
<path d="M24.5145 55H28.7961L35.6191 71.1208H30.8567L29.689 68.2625H23.507L22.3622 71.1208H17.6914L24.5145 55ZM28.4068 64.8325L26.6209 60.2821L24.8121 64.8325H28.4068Z" fill="#ED0C5A"/>
<path d="M37.1758 55.1143H41.8695L45.6932 61.3111L49.5168 55.1143H54.2106V71.1208H49.7916V61.9285L45.7046 68.1939H45.613L41.549 61.9742V71.1208H37.1758V55.1143V55.1143Z" fill="#ED0C5A"/>
<path d="M57.0498 55.1143H69.9175V58.8873H61.423V61.3111H69.1161V64.8096H61.423V67.3478H70.0319V71.1208H57.0498V55.1143Z" fill="#ED0C5A"/>
</svg>
